# xmcd CD Database Entry
#
# Track frame offsets:
# 150
# 24287
# 52500
# 72977
# 112540
# 131312
# 157905
# 184432
# 209482
# 238412
# 255300
#
# Disc length: 3651 seconds
#
# Revision: 5
# Processed by: cddbd v1.4PL0 Copyright (c) Steve Scherf et al.
# Submitted via: tcd 2.0b
#
DISCID=860e410b
DTITLE=Six Degrees Records - Traveler '01
DYEAR=1900
DGENRE=
TTITLE0=Drumming Up A Storm - Bob Holroyd
TTITLE1=Esta Osquiridad - Batidos
TTITLE2=Outro Lado - Zuco 103
TTITLE3=Homebase - dZihan and Kamien
TTITLE4=Rama Communication - State Of Bengal
TTITLE5=Sweet Rain - Euphoria
TTITLE6=San Francisco Tiene Su Propio Son - Patato
TTITLE7=The longing - Karsh Kale
TTITLE8=Scarborough Fair - Another Fine Day
TTITLE9=Para Un Angelito - Monica Ramos
TTITLE10=Weather Girl - Continuo
EXTD=
EXTT0=
EXTT1=
EXTT2=
EXTT3=
EXTT4=
EXTT5=
EXTT6=
EXTT7=
EXTT8=
EXTT9=
EXTT10=
PLAYORDER=
